<svg width="198" height="196" viewBox="0 0 198 196" fill="none" xmlns="http://www.w3.org/2000/svg">
<rect width="198" height="196" rx="16" fill="white"/>
<g clip-path="url(#clip0_619_937)">
<path d="M68.6221 114.308L73.1807 129.063C74.2049 132.413 74.632 134.752 74.4609 136.085C76.9541 129.424 78.6962 122.165 79.6872 114.308H85.1687C82.8114 127.099 79.7033 136.394 75.8443 142.192C72.8379 146.661 69.5443 148.895 65.9578 148.895C65.0016 148.895 63.8227 148.607 62.4237 148.034V144.951C63.1072 145.051 63.9091 145.104 64.8313 145.104C66.5042 145.104 67.8534 144.642 68.879 143.719C70.1074 142.594 70.7224 141.329 70.7224 139.928C70.7224 138.971 70.2428 137.007 69.288 134.037L62.9364 114.308H68.6221ZM33.7333 105.238L42.0829 130.652H42.1345L50.5354 105.238H57.399C58.902 117.842 59.7896 129.374 60.0621 139.827H54.2754C54.0715 130.056 53.5082 120.867 52.5855 112.26H52.5352L43.7232 139.827H39.3164L30.5578 112.26H30.5062C29.8568 120.526 29.4471 129.715 29.277 139.827H24C24.341 127.528 25.1944 116 26.5603 105.238H33.7333Z" fill="#00758F"/>
<path d="M127.271 104.725C136.253 104.725 140.744 110.449 140.744 121.892C140.744 128.11 139.393 132.807 136.694 135.98C136.208 136.56 135.671 137.061 135.104 137.525L141.46 140.66L141.454 140.66L139.198 144.548L130.92 139.73C129.548 140.135 128.039 140.338 126.394 140.338C121.984 140.338 118.689 139.056 116.512 136.495C114.121 133.661 112.926 129.201 112.926 123.121C112.926 116.938 114.274 112.259 116.974 109.082C119.432 106.176 122.865 104.725 127.271 104.725ZM99.7672 104.775C102.977 104.775 105.896 105.632 108.525 107.339L107.19 110.308C104.94 109.354 102.722 108.875 100.535 108.875C98.76 108.875 97.3924 109.301 96.4391 110.159C95.4805 111.009 94.8875 112.102 94.8875 113.436C94.8875 115.484 96.3506 117.261 99.0521 118.762C99.9371 119.245 100.819 119.733 101.698 120.227L101.899 120.34L102 120.396L102.202 120.509L102.303 120.566L102.505 120.68C104.55 121.83 106.474 122.927 106.474 122.927C109.175 124.84 110.521 126.88 110.521 130.239C110.521 133.172 109.444 135.58 107.296 137.464C105.146 139.34 102.259 140.281 98.6422 140.281C95.2599 140.281 91.9818 139.198 88.8066 137.051L90.292 134.08C93.0245 135.446 95.4972 136.129 97.7176 136.129C99.8 136.129 101.43 135.665 102.609 134.749C103.786 133.826 104.491 132.539 104.491 130.908C104.491 128.854 103.059 127.098 100.432 125.626C99.61 125.172 98.7901 124.715 97.9728 124.253L97.7715 124.139C97.4018 123.931 97.0294 123.72 96.6647 123.513L96.4669 123.401C94.693 122.394 93.1593 121.515 93.1593 121.515C90.5331 119.598 89.2162 117.542 89.2162 114.154C89.2162 111.353 90.1982 109.088 92.1594 107.365C94.1254 105.638 96.6613 104.775 99.7672 104.775ZM151.299 105.238V135.571H162.209V139.826H145.766V105.238L151.299 105.238ZM168.271 135.584V136.303H167.071V139.822H166.154V136.303H164.908V135.584H168.271ZM170.485 135.584L171.637 138.473L172.695 135.584H173.995V139.822H173.131V136.597L171.927 139.822H171.303L170.097 136.597H170.051V139.822H169.233V135.584H170.485ZM126.706 108.979C121.413 108.979 118.766 113.336 118.766 122.046C118.766 127.035 119.467 130.652 120.868 132.907C122.165 134.994 124.197 136.035 126.963 136.035C132.256 136.035 134.904 131.644 134.904 122.865C134.904 117.945 134.202 114.359 132.803 112.103C131.504 110.021 129.474 108.979 126.707 108.979" fill="#F29111"/>
<path d="M112.834 49.1432C114.59 44.8393 120.729 48.0986 123.111 49.602C123.695 49.9782 124.365 50.7729 125.034 51.0666C126.079 51.1075 127.122 51.189 128.169 51.2326C130.131 51.6926 131.969 52.0685 133.515 52.947C140.701 57.1687 145.379 61.4709 149.684 68.577C150.604 70.0821 151.064 71.7109 151.815 73.3397C152.858 75.7675 154.03 78.3161 155.241 80.6118C155.783 81.7002 156.202 82.9104 156.955 83.8296C157.248 84.2499 158.083 84.3738 158.582 84.6249C159.961 85.3371 161.632 85.8778 162.93 86.7137C165.352 88.2206 167.694 90.0163 169.824 91.8546C170.617 92.5642 171.158 93.5687 171.914 94.3193V94.698C171.243 94.9035 170.574 95.1139 169.905 95.2826C168.443 95.6572 167.147 95.5725 165.729 95.9475C164.852 96.2011 163.764 96.5358 162.845 96.6208L162.93 96.7062C163.47 98.2479 166.397 99.5017 167.735 100.424C169.36 101.594 170.866 103.013 172.079 104.643C172.497 105.059 172.916 105.438 173.333 105.852C173.624 106.273 173.706 106.816 174.001 107.191V107.318C173.674 107.203 173.44 106.984 173.217 106.754L173.085 106.616C172.952 106.479 172.818 106.344 172.665 106.233C171.743 105.604 170.827 104.852 169.905 104.268C168.319 103.265 166.48 102.682 164.852 101.675C163.932 101.09 163.054 100.424 162.177 99.7545C161.382 99.1679 160.506 98.0415 160.006 97.2056C159.711 96.7439 159.671 96.2011 159.335 95.8671C159.395 95.3091 159.907 95.1434 160.424 95.0072L160.543 94.976C160.722 94.9298 160.896 94.8836 161.048 94.8225C163.221 93.9025 165.81 93.5687 169.154 93.6523C169.028 92.8147 166.939 91.771 166.272 91.2695C164.933 90.3068 163.515 89.3023 162.095 88.4261C161.342 87.9672 160.045 87.6323 159.211 87.2573C158.083 86.7973 155.576 86.3375 154.95 85.4613C153.888 84.0801 153.125 82.4326 152.385 80.7684L152.183 80.3143L151.981 79.8604C151.106 77.8563 150.018 75.7669 149.141 73.715C148.682 72.714 148.471 71.8354 147.969 70.8753C144.92 64.9839 140.407 60.0513 134.936 56.5825C133.138 55.4537 131.133 54.4092 128.92 53.6993C127.666 53.3214 126.161 53.5304 124.825 53.2404H123.945C123.195 53.0294 122.568 52.2356 121.982 51.8171C120.689 50.9409 119.393 50.3526 117.846 49.7274C117.304 49.4767 115.757 48.8927 115.216 49.3524C114.882 49.4363 114.712 49.5623 114.63 49.8972C114.297 50.397 114.59 51.1499 114.797 51.6108C115.424 52.9464 116.301 53.7402 117.097 54.8689C117.805 55.8699 118.684 56.9987 119.186 58.087C120.268 60.4266 120.773 63.0187 121.776 65.358C122.148 66.2377 122.737 67.2387 123.278 68.0322C123.737 68.662 124.572 69.1174 124.825 69.9147C125.328 70.7505 124.071 73.5086 123.78 74.3845C122.692 77.8119 122.903 82.5761 124.156 85.547L124.223 85.7036L124.29 85.8623C124.747 86.9504 125.237 88.1221 126.454 88.4263C126.538 88.3433 126.454 88.3869 126.62 88.3433C126.914 86.0438 126.997 83.8293 127.792 82.0302C128.251 80.9052 129.168 80.11 129.796 79.1917C130.215 79.4419 130.215 80.1962 130.465 80.6954C131.008 81.9901 131.592 83.4096 132.263 84.7082C133.638 87.3824 135.186 89.975 136.94 92.3143C137.528 93.1499 138.361 94.0697 139.113 94.8222C139.448 95.1136 139.823 95.282 140.075 95.6569H140.157V95.7832C138.903 95.3223 138.109 94.0287 137.109 93.2735C135.227 91.854 132.973 89.7222 131.676 87.6767C131.133 86.5024 130.547 85.3769 129.962 84.2084V84.1239C129.712 84.4577 129.796 84.7891 129.671 85.2942C129.128 87.3824 129.546 89.7646 127.666 90.5157C125.535 91.3954 123.945 89.0962 123.278 88.0514C121.147 84.5834 120.563 78.7328 122.066 74.0101C122.4 72.9647 122.445 71.7109 123.028 70.8762C122.902 70.1216 122.319 69.9152 121.982 69.4529C121.398 68.6626 120.897 67.742 120.439 66.8643C119.559 65.1499 118.934 63.1014 118.266 61.2628C117.972 60.512 117.888 59.7582 117.596 59.0474C117.096 57.9625 116.176 56.8741 115.466 55.9144C114.505 54.5349 111.706 51.8612 112.834 49.1432ZM126.537 57.331C126.648 57.4426 126.783 57.5402 126.923 57.6364L127.091 57.7515C127.315 57.9064 127.532 58.0695 127.665 58.2916C127.876 58.5856 127.915 58.8759 128.168 59.1705C128.168 60.175 127.876 60.8428 127.287 61.259C127.287 61.259 127.247 61.3028 127.205 61.3437C126.871 60.6742 126.579 60.0081 126.242 59.3391C125.828 58.7552 125.242 58.2919 124.905 57.6247H124.824V57.5408C125.328 57.4166 125.828 57.331 126.537 57.331Z" fill="#00758F"/>
</g>
<defs>
<clipPath id="clip0_619_937">
<rect width="150" height="102" fill="white" transform="translate(24 47)"/>
</clipPath>
</defs>
</svg>
