<svg width="62" height="62" viewBox="0 0 62 62" fill="none" xmlns="http://www.w3.org/2000/svg">
<path d="M0 30.9998C0 40.0058 13.8793 47.3073 31 47.3073C48.1207 47.3073 62 40.0058 62 30.9998C62 21.9939 48.1202 14.6924 31 14.6924C13.8798 14.6924 0 21.9939 0 30.9998Z" fill="url(#paint0_radial_984_156)"/>
<path d="M31 46.0963C47.4518 46.0963 60.7891 39.3369 60.7891 30.9998C60.7891 22.6618 47.4518 15.9033 31 15.9033C14.5482 15.9033 1.21094 22.6618 1.21094 30.9998C1.21094 39.3369 14.5482 46.0963 31 46.0963Z" fill="#777BB3"/>
<path d="M16.8426 32.8718C18.1955 32.8718 19.2049 32.6223 19.8438 32.1307C20.4764 31.6434 20.9128 30.8001 21.142 29.6241C21.3551 28.5245 21.2737 27.7573 20.8998 27.3427C20.5181 26.9193 19.6922 26.7047 18.4454 26.7047H16.2832L15.0853 32.8718H16.8426ZM9.77125 40.4683C9.72164 40.4682 9.67266 40.4571 9.62782 40.4359C9.58299 40.4147 9.54341 40.3838 9.51192 40.3454C9.48044 40.3071 9.45783 40.2623 9.44572 40.2142C9.43361 40.1661 9.43229 40.1159 9.44187 40.0672L12.6179 23.7253C12.6329 23.649 12.674 23.5801 12.734 23.5306C12.7941 23.481 12.8694 23.4538 12.9473 23.4536H19.7935C21.945 23.4536 23.5464 24.0378 24.5534 25.1901C25.5648 26.3478 25.8777 27.9675 25.482 30.0024C25.3207 30.8311 25.0436 31.6008 24.6585 32.2906C24.2578 33.0001 23.7463 33.6411 23.1434 34.1893C22.4018 34.8829 21.5624 35.3867 20.6503 35.6826C19.7532 35.9752 18.6004 36.1234 17.2258 36.1234H14.4532L13.6617 40.196C13.6468 40.2727 13.6057 40.3418 13.5454 40.3914C13.4851 40.4411 13.4095 40.4682 13.3314 40.4683H9.77125Z" fill="black"/>
<path d="M16.5615 27.0406H18.4462C19.9511 27.0406 20.4738 27.371 20.6515 27.5681C20.9455 27.8946 21.0017 28.5838 20.8119 29.5599C20.5992 30.6531 20.2049 31.4286 19.6397 31.8635C19.0613 32.3092 18.1197 32.5349 16.8434 32.5349H15.4939L16.5615 27.0406ZM19.7942 23.1172H12.9485C12.7924 23.1172 12.6411 23.1715 12.5206 23.2707C12.4001 23.3699 12.3178 23.5079 12.2878 23.6611L9.11177 40.0035C9.09301 40.1008 9.09598 40.2011 9.12047 40.2972C9.14496 40.3932 9.19036 40.4827 9.25343 40.5592C9.3165 40.6357 9.39568 40.6973 9.48532 40.7396C9.57495 40.782 9.67284 40.804 9.77197 40.8041H13.3321C13.4882 40.804 13.6394 40.7496 13.7599 40.6503C13.8803 40.551 13.9625 40.4129 13.9923 40.2597L14.731 36.4593H17.226C18.6365 36.4593 19.8242 36.3053 20.7557 36.002C21.7133 35.6911 22.5944 35.1636 23.3742 34.4341C24.0022 33.8623 24.5351 33.194 24.9528 32.4545C25.3553 31.7342 25.6449 30.9302 25.8125 30.066C26.2291 27.9236 25.8905 26.2085 24.807 24.9685C23.7336 23.7396 22.047 23.1167 19.7942 23.1167V23.1172ZM14.6777 33.2072H16.8434C18.2787 33.2075 19.3476 32.9371 20.0499 32.3959C20.7523 31.8553 21.2266 30.9526 21.473 29.6877C21.7081 28.4729 21.6007 27.6159 21.1509 27.1167C20.7004 26.6174 19.7989 26.3678 18.4462 26.3678H16.0068L14.6777 33.2072ZM19.7947 23.7885C21.8542 23.7885 23.3563 24.3291 24.3008 25.4102C25.2453 26.4913 25.5295 28.0003 25.1533 29.9372C24.9977 30.7354 24.7353 31.4649 24.3662 32.1256C23.9965 32.7869 23.5135 33.3919 22.9174 33.9405C22.207 34.6058 21.4172 35.0796 20.5479 35.3622C19.6789 35.6451 18.5718 35.7863 17.2265 35.786H14.1769L13.3326 40.1309H9.77246L12.949 23.7885H19.7947Z" fill="white"/>
<path d="M33.644 36.123C33.5944 36.1231 33.5453 36.1122 33.5004 36.091C33.4555 36.0699 33.4158 36.0391 33.3842 36.0008C33.3527 35.9625 33.3299 35.9176 33.3177 35.8695C33.3055 35.8214 33.3041 35.7712 33.3137 35.7225L34.7183 28.4917C34.8525 27.8039 34.8196 27.3108 34.6263 27.1016C34.5076 26.9742 34.1521 26.7606 33.1005 26.7606H30.5547L28.7886 35.8513C28.7735 35.9279 28.7322 35.9968 28.6718 36.0462C28.6115 36.0957 28.5358 36.1227 28.4578 36.1226H24.9267C24.8771 36.1226 24.8281 36.1117 24.7832 36.0905C24.7383 36.0694 24.6987 36.0387 24.667 36.0004C24.6354 35.9622 24.6127 35.9175 24.6004 35.8694C24.5881 35.8214 24.5865 35.7712 24.5959 35.7225L27.7724 19.3801C27.7875 19.3036 27.8286 19.2346 27.8889 19.1851C27.9491 19.1355 28.0247 19.1084 28.1028 19.1084H31.6338C31.6835 19.1084 31.7324 19.1193 31.7773 19.1404C31.8222 19.1615 31.8619 19.1923 31.8935 19.2305C31.9251 19.2687 31.9479 19.3135 31.9602 19.3615C31.9725 19.4096 31.974 19.4598 31.9647 19.5085L31.1984 23.4532H33.9366C36.0228 23.4532 37.4371 23.8204 38.2611 24.5775C39.1005 25.3491 39.363 26.5828 39.0399 28.2456L37.5621 35.8513C37.547 35.9278 37.5058 35.9966 37.4455 36.0461C37.3853 36.0956 37.3097 36.1226 37.2318 36.1226L33.644 36.123Z" fill="black"/>
<path d="M31.6345 18.772H28.1029C27.9467 18.772 27.7954 18.8263 27.6749 18.9257C27.5543 19.025 27.4721 19.1631 27.4422 19.3164L24.2662 35.6583C24.2473 35.7556 24.2502 35.856 24.2747 35.9521C24.2991 36.0482 24.3445 36.1378 24.4076 36.2143C24.4707 36.2908 24.5499 36.3525 24.6396 36.3949C24.7292 36.4373 24.8272 36.4593 24.9264 36.4594H28.4579C28.6141 36.4594 28.7654 36.405 28.886 36.3057C29.0065 36.2064 29.0887 36.0683 29.1186 35.915L30.8319 27.0969H33.0997C34.1498 27.0969 34.3707 27.3212 34.3789 27.3314C34.4429 27.3992 34.5267 27.7164 34.3881 28.428L32.9835 35.6583C32.9646 35.7557 32.9675 35.8561 32.992 35.9522C33.0165 36.0484 33.0619 36.1379 33.125 36.2145C33.1882 36.291 33.2675 36.3527 33.3572 36.395C33.4469 36.4374 33.5449 36.4594 33.6441 36.4594H37.2324C37.3885 36.4593 37.5397 36.4049 37.6601 36.3056C37.7805 36.2063 37.8627 36.0682 37.8926 35.915L39.3704 28.3103C39.7168 26.5249 39.4203 25.1861 38.4889 24.3302C37.5996 23.5135 36.1106 23.1168 33.9367 23.1168H31.6069L32.2952 19.5736C32.3141 19.4762 32.3112 19.3757 32.2868 19.2795C32.2623 19.1833 32.2169 19.0937 32.1538 19.017C32.0907 18.9404 32.0114 18.8787 31.9216 18.8364C31.8318 18.794 31.7337 18.772 31.6345 18.772ZM31.6345 19.4453L30.7902 23.7891H33.9367C35.9165 23.7891 37.282 24.1346 38.0331 24.8257C38.7848 25.5161 39.0105 26.635 38.7102 28.1824L37.2319 35.7866H33.6441L35.0493 28.5559C35.2092 27.7334 35.1502 27.1725 34.8725 26.8731C34.5948 26.5741 34.0042 26.4246 33.1007 26.4246H30.2773L28.4579 35.7861H24.9259L28.1024 19.4438H31.6345V19.4453Z" fill="white"/>
<path d="M44.6293 32.8718C45.9821 32.8718 46.992 32.6223 47.6314 32.1307C48.263 31.6434 48.6999 30.8001 48.9291 29.6241C49.1422 28.5245 49.0613 27.7573 48.6869 27.3427C48.3052 26.9193 47.4793 26.7047 46.2325 26.7047H44.0708L42.872 32.8718H44.6293ZM37.5593 40.4683C37.5096 40.4683 37.4605 40.4574 37.4156 40.4362C37.3706 40.415 37.3309 40.3842 37.2993 40.3458C37.2677 40.3075 37.2451 40.2626 37.2329 40.2144C37.2207 40.1662 37.2194 40.1159 37.229 40.0672L40.405 23.7253C40.4201 23.6488 40.4612 23.5798 40.5215 23.5303C40.5818 23.4807 40.6573 23.4536 40.7354 23.4536H47.581C49.7326 23.4536 51.334 24.0378 52.3405 25.1901C53.3524 26.3478 53.6648 27.9675 53.2691 30.0024C53.1176 30.8039 52.8399 31.5762 52.4461 32.2906C52.0454 33.0001 51.5339 33.6411 50.931 34.1893C50.1899 34.8829 49.3495 35.3867 48.4379 35.6826C47.5408 35.9752 46.388 36.1234 45.0129 36.1234H42.2408L41.4498 40.196C41.4349 40.2728 41.3937 40.3419 41.3333 40.3916C41.2729 40.4412 41.1972 40.4683 41.119 40.4683H37.5593Z" fill="black"/>
<path d="M44.3466 27.0406H46.2313C47.7363 27.0406 48.2589 27.371 48.4362 27.5681C48.7317 27.8946 48.7869 28.5838 48.5975 29.5599C48.3844 30.6531 47.9901 31.4286 47.4248 31.8635C46.846 32.3092 45.9044 32.5349 44.6285 32.5349H43.279L44.3466 27.0406ZM47.5793 23.1172H40.7337C40.5776 23.1173 40.4265 23.1716 40.3061 23.2708C40.1857 23.3701 40.1034 23.508 40.0735 23.6611L36.8969 40.0035C36.8782 40.1008 36.8811 40.2012 36.9057 40.2973C36.9302 40.3934 36.9756 40.4829 37.0387 40.5594C37.1019 40.6359 37.1811 40.6975 37.2708 40.7398C37.3605 40.7821 37.4584 40.8041 37.5576 40.8041H41.1178C41.2739 40.804 41.4251 40.7496 41.5455 40.6503C41.6659 40.551 41.7481 40.4129 41.778 40.2597L42.5166 36.4593H45.0112C46.4212 36.4593 47.6094 36.3053 48.5403 36.002C49.4984 35.6911 50.3795 35.1636 51.1598 34.4336C51.7877 33.8619 52.3204 33.1938 52.7379 32.4545C53.1409 31.7342 53.4296 30.9302 53.5977 30.066C54.0143 27.9236 53.6762 26.2085 52.5921 24.9685C51.5188 23.7396 49.8326 23.1167 47.5788 23.1167L47.5793 23.1172ZM42.4629 33.2072H44.628C46.0634 33.2075 47.1326 32.9371 47.8356 32.3959C48.5379 31.8553 49.012 30.9526 49.2577 29.6877C49.4937 28.4729 49.3864 27.6159 48.9356 27.1167C48.4848 26.6174 47.5834 26.3678 46.2313 26.3678H43.7925L42.4629 33.2072ZM47.5793 23.7885C49.6389 23.7885 51.1409 24.3291 52.0855 25.4102C53.03 26.4913 53.314 28.0003 52.9375 29.9372C52.7825 30.7354 52.5203 31.4649 52.1509 32.1256C51.7814 32.7869 51.2984 33.3919 50.7016 33.9405C49.9912 34.6058 49.2013 35.0796 48.332 35.3622C47.4634 35.6451 46.3564 35.7863 45.0112 35.786H41.962L41.1168 40.1309H37.5566L40.7332 23.7885H47.5793Z" fill="white"/>
<defs>
<radialGradient id="paint0_radial_984_156" cx="0" cy="0" r="1" gradientUnits="userSpaceOnUse" gradientTransform="translate(18.6126 20.4254) scale(40.7075)">
<stop stop-color="#AEB2D5"/>
<stop offset="0.3" stop-color="#AEB2D5"/>
<stop offset="0.75" stop-color="#484C89"/>
<stop offset="1" stop-color="#484C89"/>
</radialGradient>
</defs>
</svg>
