<svg width="87" height="74" viewBox="0 0 87 74" fill="none" xmlns="http://www.w3.org/2000/svg">
<g clip-path="url(#clip0_1229_668)">
<path d="M78.2069 0.142391L1.35464 8.21989C0.992815 8.26218 0.665205 8.47419 0.443664 8.8094C0.222124 9.1446 0.124742 9.57565 0.172885 10.008L6.72619 72.3585C6.7695 72.7908 6.95457 73.1914 7.24085 73.4725C7.52713 73.7536 7.89128 73.8924 8.25351 73.8583L85.1057 65.7808C85.4671 65.7388 85.7945 65.5274 86.016 65.1929C86.2376 64.8584 86.3353 64.4281 86.2879 63.9962L79.7345 1.64571C79.6918 1.21286 79.5069 0.811507 79.2206 0.529686C78.9342 0.247864 78.5697 0.108577 78.207 0.142373L78.2069 0.142391Z" fill="#090814"/>
<path d="M75.9701 0.706495L1.47066 8.5367C1.12214 8.57412 0.805469 8.77513 0.590147 9.09562C0.374826 9.41612 0.27844 9.82991 0.322145 10.2462L6.58 69.7857C6.62419 70.2016 6.80465 70.5857 7.08182 70.8539C7.35899 71.122 7.71024 71.2524 8.05856 71.2164L82.558 63.3862C82.9062 63.349 83.2227 63.1484 83.438 62.8285C83.6534 62.5085 83.75 62.0953 83.7068 61.6794L77.449 2.13995C77.4052 1.72381 77.225 1.3392 76.9479 1.07048C76.6708 0.801759 76.3194 0.670871 75.9709 0.706526L75.9701 0.706495Z" fill="white"/>
<path d="M20.0231 23.9967L63.2265 19.4558C63.3759 19.4401 63.5274 19.4596 63.6725 19.5133C63.8177 19.567 63.9536 19.6538 64.0724 19.7688C64.1913 19.8837 64.2908 20.0246 64.3652 20.1833C64.4397 20.3421 64.4877 20.5155 64.5064 20.6938L67.4317 48.5263C67.4696 48.8863 67.3861 49.2442 67.1996 49.5212C67.0132 49.7982 66.7391 49.9716 66.4376 50.0033L23.2337 54.5442C22.9322 54.5759 22.628 54.4633 22.3881 54.2311C22.1481 53.9989 21.9921 53.6662 21.9542 53.3062L19.0289 25.4737C18.9911 25.1137 19.0746 24.7558 19.261 24.4788C19.4474 24.2018 19.7216 24.0284 20.0231 23.9967Z" fill="#2420F1"/>
<path d="M27.9434 28.3331L26.2835 28.5076C26.2055 28.5158 26.1503 28.5979 26.16 28.691L26.2522 29.5676C26.262 29.6607 26.3331 29.7295 26.411 29.7213L28.071 29.5469C28.1489 29.5387 28.2042 29.4566 28.1944 29.3635L28.1023 28.4868C28.0925 28.3938 28.0214 28.3249 27.9434 28.3331Z" fill="white"/>
<path d="M39.768 27.089L38.1081 27.2635C38.0301 27.2717 37.9748 27.3537 37.9846 27.4468L38.0768 28.3235C38.0866 28.4166 38.1577 28.4854 38.2356 28.4772L39.8956 28.3027C39.9735 28.2945 40.0288 28.2124 40.019 28.1194L39.9268 27.2427C39.9171 27.1496 39.8459 27.0808 39.768 27.089Z" fill="white"/>
<path d="M43.1177 26.7374L41.4578 26.9119C41.3798 26.9201 41.3246 27.0022 41.3344 27.0953L41.4265 27.9719C41.4363 28.065 41.5074 28.1338 41.5854 28.1256L43.2453 27.9512C43.3232 27.943 43.3785 27.8609 43.3687 27.7678L43.2766 26.8911C43.2668 26.7981 43.1957 26.7292 43.1177 26.7374Z" fill="white"/>
<path d="M35.641 27.4214L29.153 28.1033C29.075 28.1115 29.0198 28.1936 29.0296 28.2867L29.1217 29.1633C29.1315 29.2564 29.2026 29.3252 29.2805 29.317L35.7685 28.6351C35.8465 28.6269 35.9017 28.5448 35.8919 28.4518L35.7998 27.5751C35.79 27.482 35.7189 27.4132 35.641 27.4214Z" fill="white"/>
<path d="M52.166 25.6831L45.678 26.365C45.6001 26.3732 45.5448 26.4553 45.5546 26.5484L45.6467 27.4251C45.6565 27.5181 45.7276 27.5869 45.8056 27.5788L52.2936 26.8968C52.3715 26.8886 52.4268 26.8066 52.417 26.7135L52.3248 25.8368C52.315 25.7437 52.2439 25.6749 52.166 25.6831Z" fill="white"/>
<path d="M31.0547 30.7745L29.3948 30.949C29.3168 30.9572 29.2616 31.0393 29.2714 31.1324L29.3635 32.009C29.3733 32.1021 29.4444 32.1709 29.5224 32.1627L31.1823 31.9883C31.2603 31.9801 31.3155 31.898 31.3057 31.8049L31.2136 30.9282C31.2038 30.8352 31.1327 30.7663 31.0547 30.7745Z" fill="white"/>
<path d="M43.2085 29.4972L41.5486 29.6717C41.4707 29.6799 41.4154 29.762 41.4252 29.855L41.5173 30.7317C41.5271 30.8248 41.5982 30.8936 41.6762 30.8854L43.3361 30.7109C43.4141 30.7027 43.4693 30.6206 43.4595 30.5276L43.3674 29.6509C43.3576 29.5578 43.2865 29.489 43.2085 29.4972Z" fill="white"/>
<path d="M46.5594 29.1456L44.8994 29.3201C44.8215 29.3283 44.7662 29.4104 44.776 29.5035L44.8682 30.3801C44.8779 30.4732 44.9491 30.542 45.027 30.5338L46.6869 30.3594C46.7649 30.3512 46.8201 30.2691 46.8104 30.176L46.7182 29.2993C46.7084 29.2063 46.6373 29.1374 46.5594 29.1456Z" fill="white"/>
<path d="M39.56 29.7788L33.072 30.4607C32.9941 30.4689 32.9388 30.551 32.9486 30.6441L33.0408 31.5208C33.0505 31.6138 33.1217 31.6827 33.1996 31.6745L39.6876 30.9925C39.7655 30.9844 39.8208 30.9023 39.811 30.8092L39.7189 29.9325C39.7091 29.8394 39.638 29.7706 39.56 29.7788Z" fill="white"/>
<path d="M56.0765 28.0425L49.5885 28.7244C49.5106 28.7326 49.4553 28.8147 49.4651 28.9078L49.5572 29.7844C49.567 29.8775 49.6381 29.9463 49.7161 29.9381L56.2041 29.2562C56.282 29.248 56.3373 29.1659 56.3275 29.0729L56.2354 28.1962C56.2256 28.1031 56.1545 28.0343 56.0765 28.0425Z" fill="white"/>
<path d="M34.8256 33.1476L33.1657 33.3221C33.0877 33.3302 33.0325 33.4123 33.0422 33.5054L33.1344 34.3821C33.1442 34.4752 33.2153 34.544 33.2932 34.5358L34.9532 34.3613C35.0311 34.3531 35.0864 34.271 35.0766 34.178L34.9845 33.3013C34.9747 33.2082 34.9036 33.1394 34.8256 33.1476Z" fill="white"/>
<path d="M46.6492 31.9054L44.9893 32.0799C44.9113 32.0881 44.8561 32.1702 44.8659 32.2632L44.958 33.1399C44.9678 33.233 45.0389 33.3018 45.1168 33.2936L46.7768 33.1191C46.8547 33.1109 46.91 33.0288 46.9002 32.9358L46.8081 32.0591C46.7983 31.966 46.7272 31.8972 46.6492 31.9054Z" fill="white"/>
<path d="M49.9994 31.5538L48.3395 31.7283C48.2616 31.7365 48.2063 31.8186 48.2161 31.9117L48.3082 32.7883C48.318 32.8814 48.3891 32.9502 48.4671 32.942L50.127 32.7676C50.205 32.7594 50.2602 32.6773 50.2504 32.5842L50.1583 31.7075C50.1485 31.6145 50.0774 31.5456 49.9994 31.5538Z" fill="white"/>
<path d="M43.0716 32.1792L36.5836 32.8611C36.5057 32.8693 36.4504 32.9514 36.4602 33.0445L36.5524 33.9212C36.5621 34.0142 36.6333 34.083 36.7112 34.0749L43.1992 33.3929C43.2771 33.3847 43.3324 33.3026 43.3226 33.2096L43.2305 32.3329C43.2207 32.2398 43.1496 32.171 43.0716 32.1792Z" fill="white"/>
<path d="M59.1886 30.4858L52.7006 31.1678C52.6226 31.1759 52.5674 31.258 52.5772 31.3511L52.6693 32.2278C52.6791 32.3209 52.7502 32.3897 52.8281 32.3815L59.3161 31.6996C59.3941 31.6914 59.4493 31.6093 59.4396 31.5162L59.3474 30.6395C59.3376 30.5465 59.2665 30.4776 59.1886 30.4858Z" fill="white"/>
<path d="M38.2662 35.5558L36.6062 35.7303C36.5283 35.7384 36.473 35.8205 36.4828 35.9136L36.5749 36.7903C36.5847 36.8834 36.6558 36.9522 36.7338 36.944L38.3937 36.7695C38.4717 36.7613 38.5269 36.6792 38.5172 36.5862L38.425 35.7095C38.4152 35.6164 38.3441 35.5476 38.2662 35.5558Z" fill="white"/>
<path d="M50.0901 34.3136L48.4302 34.4881C48.3522 34.4963 48.297 34.5784 48.3068 34.6714L48.3989 35.5481C48.4087 35.6412 48.4798 35.71 48.5578 35.7018L50.2177 35.5273C50.2957 35.5191 50.3509 35.437 50.3411 35.344L50.249 34.4673C50.2392 34.3742 50.1681 34.3054 50.0901 34.3136Z" fill="white"/>
<path d="M53.4405 33.962L51.7805 34.1365C51.7026 34.1447 51.6473 34.2268 51.6571 34.3199L51.7493 35.1965C51.759 35.2896 51.8302 35.3584 51.9081 35.3502L53.5681 35.1758C53.646 35.1676 53.7013 35.0855 53.6915 34.9924L53.5993 34.1157C53.5895 34.0227 53.5184 33.9538 53.4405 33.962Z" fill="white"/>
<path d="M46.5826 34.5796L40.0946 35.2615C40.0167 35.2697 39.9614 35.3518 39.9712 35.4449L40.0633 36.3215C40.0731 36.4146 40.1442 36.4834 40.2222 36.4752L46.7102 35.7933C46.7881 35.7851 46.8434 35.703 46.8336 35.61L46.7415 34.7333C46.7317 34.6402 46.6606 34.5714 46.5826 34.5796Z" fill="white"/>
<path d="M41.7767 46.2003L40.1167 46.3748C40.0388 46.383 39.9835 46.4651 39.9933 46.5582L40.0854 47.4348C40.0952 47.5279 40.1663 47.5967 40.2443 47.5885L41.9042 47.4141C41.9822 47.4059 42.0374 47.3238 42.0277 47.2307L41.9355 46.354C41.9257 46.2609 41.8546 46.1921 41.7767 46.2003Z" fill="white"/>
<path d="M45.1264 45.8488L43.4664 46.0232C43.3885 46.0314 43.3332 46.1135 43.343 46.2066L43.4352 47.0833C43.445 47.1763 43.5161 47.2452 43.594 47.237L45.254 47.0625C45.3319 47.0543 45.3872 46.9722 45.3774 46.8791L45.2852 46.0025C45.2755 45.9094 45.2043 45.8406 45.1264 45.8488Z" fill="white"/>
<path d="M54.1959 44.9976L47.7079 45.6795C47.63 45.6877 47.5747 45.7698 47.5845 45.8628L47.6766 46.7395C47.6864 46.8326 47.7575 46.9014 47.8355 46.8932L54.3235 46.2113C54.4014 46.2031 54.4567 46.121 54.4469 46.0279L54.3547 45.1513C54.345 45.0582 54.2738 44.9894 54.1959 44.9976Z" fill="white"/>
<path d="M29.9521 47.4425L28.2921 47.617C28.2142 47.6252 28.1589 47.7073 28.1687 47.8003L28.2609 48.677C28.2706 48.7701 28.3418 48.8389 28.4197 48.8307L30.0796 48.6562C30.1576 48.6481 30.2129 48.566 30.2031 48.4729L30.1109 47.5962C30.1011 47.5031 30.03 47.4343 29.9521 47.4425Z" fill="white"/>
<path d="M37.671 46.7339L31.183 47.4158C31.1051 47.424 31.0498 47.5061 31.0596 47.5992L31.1517 48.4758C31.1615 48.5689 31.2326 48.6377 31.3106 48.6295L37.7986 47.9476C37.8765 47.9394 37.9318 47.8573 37.922 47.7643L37.8298 46.8876C37.8201 46.7945 37.7489 46.7257 37.671 46.7339Z" fill="white"/>
<path d="M32.4876 44.4074L30.8277 44.5818C30.7497 44.59 30.6945 44.6721 30.7042 44.7652L30.7964 45.6419C30.8062 45.7349 30.8773 45.8037 30.9552 45.7956L32.6152 45.6211C32.6931 45.6129 32.7484 45.5308 32.7386 45.4377L32.6464 44.561C32.6367 44.468 32.5655 44.3992 32.4876 44.4074Z" fill="white"/>
<path d="M44.6414 43.13L42.9815 43.3045C42.9035 43.3127 42.8483 43.3948 42.858 43.4878L42.9502 44.3645C42.96 44.4576 43.0311 44.5264 43.109 44.5182L44.769 44.3437C44.8469 44.3356 44.9022 44.2535 44.8924 44.1604L44.8003 43.2837C44.7905 43.1906 44.7194 43.1218 44.6414 43.13Z" fill="white"/>
<path d="M47.9922 42.7784L46.3323 42.9529C46.2543 42.9611 46.1991 43.0432 46.2089 43.1363L46.301 44.0129C46.3108 44.106 46.3819 44.1748 46.4599 44.1666L48.1198 43.9922C48.1978 43.984 48.253 43.9019 48.2432 43.8088L48.1511 42.9321C48.1413 42.8391 48.0702 42.7703 47.9922 42.7784Z" fill="white"/>
<path d="M41.0141 43.6128L34.5261 44.2947C34.4482 44.3029 34.3929 44.385 34.4027 44.4781L34.4949 45.3547C34.5046 45.4478 34.5758 45.5166 34.6537 45.5084L41.1417 44.8265C41.2196 44.8183 41.2749 44.7362 41.2651 44.6432L41.173 43.7665C41.1632 43.6734 41.0921 43.6046 41.0141 43.6128Z" fill="white"/>
<path d="M35.6827 41.3019L34.0227 41.4763C33.9448 41.4845 33.8895 41.5666 33.8993 41.6597L33.9914 42.5364C34.0012 42.6295 34.0723 42.6983 34.1503 42.6901L35.8102 42.5156C35.8882 42.5074 35.9434 42.4253 35.9337 42.3323L35.8415 41.4556C35.8317 41.3625 35.7606 41.2937 35.6827 41.3019Z" fill="white"/>
<path d="M47.5062 40.0597L45.8462 40.2342C45.7683 40.2424 45.713 40.3245 45.7228 40.4175L45.8149 41.2942C45.8247 41.3873 45.8958 41.4561 45.9738 41.4479L47.6337 41.2734C47.7117 41.2652 47.7669 41.1831 47.7571 41.0901L47.665 40.2134C47.6552 40.1203 47.5841 40.0515 47.5062 40.0597Z" fill="white"/>
<path d="M50.8564 39.7062L49.1964 39.8806C49.1185 39.8888 49.0632 39.9709 49.073 40.064L49.1652 40.9407C49.1749 41.0338 49.2461 41.1026 49.324 41.0944L50.9839 40.9199C51.0619 40.9117 51.1171 40.8296 51.1074 40.7365L51.0152 39.8599C51.0054 39.7668 50.9343 39.698 50.8564 39.7062Z" fill="white"/>
<path d="M43.9498 40.5347L37.4618 41.2166C37.3839 41.2248 37.3286 41.3069 37.3384 41.4L37.4305 42.2766C37.4403 42.3697 37.5114 42.4385 37.5894 42.4303L44.0774 41.7484C44.1553 41.7402 44.2106 41.6581 44.2008 41.565L44.1086 40.6884C44.0989 40.5953 44.0277 40.5265 43.9498 40.5347Z" fill="white"/>
<path d="M38.5473 38.2316L36.8873 38.406C36.8094 38.4142 36.7541 38.4963 36.7639 38.5894L36.8561 39.4661C36.8659 39.5592 36.937 39.628 37.0149 39.6198L38.6749 39.4453C38.7528 39.4371 38.8081 39.355 38.7983 39.2619L38.7061 38.3853C38.6964 38.2922 38.6252 38.2234 38.5473 38.2316Z" fill="white"/>
<path d="M50.3713 36.9874L48.7113 37.1619C48.6334 37.1701 48.5781 37.2522 48.5879 37.3453L48.68 38.2219C48.6898 38.315 48.7609 38.3838 48.8389 38.3756L50.4988 38.2012C50.5768 38.193 50.632 38.1109 50.6223 38.0178L50.5301 37.1411C50.5203 37.0481 50.4492 36.9792 50.3713 36.9874Z" fill="white"/>
<path d="M53.7216 36.6359L52.0617 36.8103C51.9837 36.8185 51.9285 36.9006 51.9382 36.9937L52.0304 37.8704C52.0402 37.9634 52.1113 38.0323 52.1892 38.0241L53.8492 37.8496C53.9271 37.8414 53.9824 37.7593 53.9726 37.6662L53.8805 36.7896C53.8707 36.6965 53.7996 36.6277 53.7216 36.6359Z" fill="white"/>
<path d="M46.8851 37.4565L40.3971 38.1385C40.3192 38.1467 40.2639 38.2287 40.2737 38.3218L40.3658 39.1985C40.3756 39.2916 40.4467 39.3604 40.5247 39.3522L47.0127 38.6703C47.0906 38.6621 47.1459 38.58 47.1361 38.4869L47.0439 37.6102C47.0342 37.5172 46.963 37.4484 46.8851 37.4565Z" fill="white"/>
<path d="M4.65469 10.0761C4.88089 10.0523 5.11043 10.1091 5.31428 10.2394C5.51814 10.3697 5.68715 10.5676 5.79994 10.8081C5.91273 11.0486 5.96425 11.3208 5.94796 11.5903C5.93168 11.8599 5.84833 12.1147 5.70845 12.3225C5.56858 12.5303 5.37846 12.6818 5.16215 12.7579C4.94583 12.8339 4.71303 12.831 4.49318 12.7496C4.27333 12.6682 4.07631 12.5119 3.92703 12.3005C3.77775 12.0891 3.68292 11.8321 3.65453 11.562C3.61646 11.1998 3.70045 10.8397 3.88801 10.5611C4.07558 10.2824 4.35136 10.1079 4.65469 10.0761Z" fill="#090814"/>
<path d="M7.73769 9.75184C7.9639 9.72806 8.19344 9.78492 8.39729 9.91522C8.60115 10.0455 8.77016 10.2434 8.88295 10.4839C8.99574 10.7243 9.04725 10.9966 9.03097 11.2661C9.01468 11.5357 8.93133 11.7905 8.79146 11.9983C8.65159 12.2061 8.46147 12.3576 8.24515 12.4336C8.02884 12.5097 7.79603 12.5068 7.57618 12.4254C7.35634 12.344 7.15932 12.1877 7.01004 11.9763C6.86076 11.7649 6.76593 11.5079 6.73754 11.2378C6.69947 10.8756 6.78345 10.5155 6.97102 10.2369C7.15859 9.95818 7.43437 9.78372 7.73769 9.75184Z" fill="#090814"/>
<path d="M10.8207 9.42762C11.0469 9.40384 11.2764 9.4607 11.4803 9.591C11.6842 9.72131 11.8532 9.9192 11.966 10.1597C12.0788 10.4001 12.1303 10.6723 12.114 10.9419C12.0977 11.2115 12.0143 11.4663 11.8745 11.6741C11.7346 11.8819 11.5445 12.0334 11.3282 12.1094C11.1118 12.1854 10.879 12.1826 10.6592 12.1012C10.4393 12.0197 10.2423 11.8635 10.093 11.6521C9.94377 11.4407 9.84894 11.1837 9.82055 10.9136C9.78248 10.5514 9.86646 10.1913 10.054 9.91263C10.2416 9.63396 10.5174 9.4595 10.8207 9.42762Z" fill="#090814"/>
</g>
<defs>
<clipPath id="clip0_1229_668">
<rect width="80" height="66" fill="white" transform="translate(0 8.36228) rotate(-6)"/>
</clipPath>
</defs>
</svg>
