<svg width="62" height="80" viewBox="0 0 62 80" fill="none" xmlns="http://www.w3.org/2000/svg">
<path d="M25.6753 18.8248C29.1132 17.9363 32.5954 19.9439 33.4612 23.2943L33.6655 24.0847L33.9727 23.5756L34.0893 23.3831C35.9035 20.3809 39.8419 19.3628 42.8834 21.1104C45.9212 22.8558 46.9143 26.6996 45.1028 29.6984L44.9862 29.8909L44.6689 30.4157L45.483 30.2053C48.9209 29.3169 52.403 31.3244 53.2689 34.6748C54.1347 38.0251 52.0612 41.4684 48.6233 42.3569L47.8102 42.567L48.341 42.8726L48.5364 42.9845C51.574 44.7302 52.5676 48.5738 50.7558 51.5725C48.9418 54.5749 45.0033 55.5925 41.9617 53.8452L41.7664 53.7333L41.251 53.4368L41.4552 54.2272C42.3211 57.5776 40.2476 61.0209 36.8097 61.9093C33.3718 62.7978 29.8897 60.7903 29.0238 57.4399L28.8195 56.6495L28.5123 57.1585L28.3957 57.3511C26.5815 60.3533 22.6431 61.3713 19.6016 59.6237C16.5638 57.8783 15.5707 54.0346 17.3822 51.0358L17.4989 50.8432L17.8152 50.3187L17.002 50.5288C13.5641 51.4172 10.082 49.4097 9.21616 46.0594L9.14403 45.7452C8.48164 42.4964 10.5312 39.238 13.8617 38.3773L14.6758 38.1669L14.144 37.8615L13.9486 37.7496C10.911 36.004 9.91746 32.1603 11.7292 29.1616C13.5432 26.1592 17.4817 25.1416 20.5233 26.889L20.7187 27.0009L21.234 27.2974L21.0298 26.5069C20.1639 23.1566 22.2374 19.7133 25.6753 18.8248Z" fill="#F9F917" stroke="#121212" stroke-width="0.5"/>
<path d="M27.7003 47.3109C27.5959 47.3545 27.4797 47.3845 27.3518 47.401C27.2353 47.3981 27.1129 47.3719 26.9844 47.3224C26.8285 47.2305 26.7192 47.1596 26.6568 47.1096C26.5903 47.0442 26.5448 46.932 26.5202 46.7731C26.5112 46.6102 26.5033 46.356 26.4967 46.0107C26.5101 45.7428 26.515 45.378 26.5114 44.9162C26.5037 44.439 26.5058 43.9675 26.5177 43.5017C26.5001 43.2418 26.496 42.9702 26.5054 42.6868C26.5303 42.3995 26.5612 42.1353 26.5981 41.8944C26.631 41.6381 26.6547 41.4419 26.6691 41.306C26.681 40.8402 26.6991 40.4306 26.7235 40.0773C26.7633 39.72 26.8144 39.3101 26.8768 38.8478C26.9351 38.3701 26.9961 37.7428 27.0598 36.9662C27.1604 35.9487 27.2339 35.1778 27.2802 34.6535C27.338 34.1098 27.3776 33.7194 27.399 33.4825C27.4319 33.2262 27.4479 33.032 27.4468 32.9001C27.4148 32.7761 27.4218 32.6752 27.4677 32.5972C27.5292 32.5152 27.6141 32.4602 27.7225 32.4322C27.9394 32.3762 28.1378 32.4406 28.3178 32.6254C28.5093 32.7908 28.6585 33.0166 28.7656 33.3029C28.8686 33.5738 28.8902 33.8491 28.8303 34.129C28.7265 34.7508 28.6353 35.4849 28.5566 36.3315C28.4739 37.1627 28.397 37.984 28.3258 38.7957C28.2506 39.5918 28.1628 40.2755 28.0626 40.8467C28.0786 40.9087 28.0834 41.0231 28.0769 41.1901C28.0705 41.357 28.0523 41.5104 28.0223 41.6504C27.9924 41.7903 27.9605 41.9225 27.9265 42.0469C27.9081 42.1674 27.8988 42.2276 27.8988 42.2276C27.9148 42.2896 27.9216 42.4118 27.9192 42.5942C27.9168 42.7766 27.9088 43.0017 27.8954 43.2696C27.8815 43.4715 27.8661 43.7316 27.8492 44.05C27.8478 44.3643 27.8576 44.6262 27.8787 44.8356C27.9201 44.6762 28.0287 44.425 28.2045 44.0821C28.3803 43.7392 28.5507 43.4391 28.7155 43.1816C28.9073 42.9007 29.1241 42.5885 29.3659 42.2451C29.6076 41.9017 29.8055 41.644 29.9593 41.4721C30.1132 41.3001 30.2478 41.1496 30.3632 41.0207C30.4901 40.8722 30.5536 40.798 30.5536 40.798C30.5376 40.736 30.5528 40.699 30.5993 40.687C30.6572 40.6555 30.7172 40.6317 30.7792 40.6157C30.8411 40.5997 30.8701 40.584 30.8661 40.5685C30.8776 40.549 30.8753 40.5083 30.8593 40.4463C30.8393 40.3688 30.9065 40.2771 31.0609 40.1711C31.2308 40.0611 31.4279 39.9606 31.6523 39.8696C31.8881 39.759 32.0835 39.6838 32.2384 39.6437C32.4243 39.5957 32.5815 39.5964 32.7099 39.6458C32.8384 39.6953 33.0218 39.8297 33.2603 40.049C33.5102 40.2488 33.7045 40.5208 33.843 40.8651C33.993 41.1899 34.0541 41.5542 34.0263 41.958C34.0583 42.082 34.0811 42.2661 34.0947 42.5105C34.1197 42.7354 34.1643 42.9718 34.2283 43.2196L34.281 43.9992L34.6528 43.9031C34.7768 43.8711 34.8989 43.8643 35.0194 43.8828C35.1358 43.8857 35.1941 43.8872 35.1941 43.8872C35.272 43.9332 35.35 43.9791 35.428 44.0251C35.502 44.0555 35.5699 44.0628 35.6319 44.0468C35.8178 43.9987 35.9075 44.0582 35.9011 44.2251C35.8906 44.3765 35.8085 44.5382 35.6546 44.7102C35.3469 45.0541 35.0381 45.2661 34.7282 45.3462C34.4339 45.4222 34.1308 45.3683 33.8189 45.1845C33.503 44.9852 33.272 44.7309 33.126 44.4216C32.98 44.1123 32.9049 43.6938 32.9007 43.1661C32.7865 42.4684 32.6894 41.9647 32.6094 41.6549C32.5408 41.3256 32.4213 41.1829 32.2509 41.227C32.096 41.267 31.8529 41.4455 31.5217 41.7624C31.1864 42.0639 30.8247 42.4548 30.4366 42.9352C30.0484 43.4156 29.678 43.9327 29.3254 44.4866C28.9727 45.0404 28.7015 45.5897 28.5118 46.1345C28.3859 46.4149 28.2618 46.6701 28.1395 46.9C28.0131 47.1144 27.8667 47.2514 27.7003 47.3109ZM38.0302 45.187C37.8743 45.0951 37.7413 44.9642 37.6313 44.7943C37.5368 44.6204 37.4733 44.4385 37.4407 44.2486C37.4082 44.0587 37.4069 43.8938 37.4368 43.7539C37.4048 43.6299 37.3963 43.533 37.4113 43.463C37.4377 43.3736 37.4352 43.2998 37.4037 43.2419C37.3722 43.1839 37.3597 43.0715 37.3661 42.9046C37.3725 42.7376 37.381 42.5785 37.3914 42.427C37.4358 42.1512 37.4759 41.8268 37.5118 41.454C37.5437 41.0657 37.5698 40.6871 37.5902 40.3183C37.6105 39.9494 37.6274 39.6311 37.6408 39.3632C37.6542 39.0953 37.6607 38.9284 37.6602 38.8624C37.6121 38.6765 37.71 38.5438 37.9539 38.4643C38.1238 38.3543 38.2632 38.3183 38.3722 38.3562C38.4771 38.3787 38.6391 38.4938 38.858 38.7016C39.014 38.7935 39.1085 38.9674 39.1416 39.2233C39.1746 39.4792 39.154 39.815 39.0797 40.2308C39.0497 40.3708 39.0183 40.5689 38.9854 40.8253C38.968 41.0777 38.9678 41.3008 38.9849 41.4947C38.9549 41.6347 38.9235 41.8328 38.8906 42.0892C38.8692 42.3261 38.8535 42.5533 38.8436 42.7707C38.8326 42.8561 38.8317 42.9803 38.8407 43.1432C38.8457 43.2906 38.847 43.4556 38.8446 43.638C38.8382 43.8049 38.8122 43.9603 38.7668 44.1043C38.7915 44.7754 38.7559 45.1813 38.66 45.3217C38.5796 45.4582 38.3697 45.4133 38.0302 45.187ZM37.8464 35.1704C37.7489 35.113 37.6512 35.0226 37.5532 34.8992C37.4512 34.7603 37.3764 34.6308 37.3289 34.5109C37.2774 34.3755 37.2749 34.3018 37.3214 34.2898C37.4413 34.2423 37.5544 34.0726 37.6608 33.7807C37.7671 33.4888 37.7808 33.2539 37.7018 33.076C37.6858 33.014 37.695 32.9538 37.7295 32.8953C37.7599 32.8214 37.8041 32.7686 37.8621 32.7371C38.016 32.5651 38.1901 32.5036 38.3845 32.5525C38.5905 32.582 38.8029 32.7006 39.0218 32.9084C39.2373 33.1667 39.3401 33.4046 39.3302 33.622C39.3162 33.8239 39.2139 34.1313 39.0231 34.5441C38.8708 34.914 38.698 35.1404 38.5046 35.2234C38.3267 35.3025 38.1073 35.2848 37.8464 35.1704Z" fill="#121212"/>
</svg>
